<svg xmlns="http://www.w3.org/2000/svg" width="860" height="620" font-family="'Consolas', 'Courier New', monospace">

  <!-- VS Code Window Background -->
  <rect width="860" height="620" fill="#1e1e1e" rx="10"/>

  <!-- Title Bar -->
  <rect x="0" y="0" width="860" height="35" fill="#3c3c3c" rx="10"/>
  <rect x="0" y="20" width="860" height="15" fill="#3c3c3c"/>

  <!-- Window Buttons -->
  <circle cx="20" cy="18" r="6" fill="#ff5f57"/>
  <circle cx="40" cy="18" r="6" fill="#febc2e"/>
  <circle cx="60" cy="18" r="6" fill="#28c840"/>

  <!-- File Tab -->
  <rect x="80" y="6" width="180" height="26" rx="4" fill="#1e1e1e"/>
  <text x="95" y="23" font-size="12" fill="#cccccc">📄 UserDashboard.jsx</text>

  <!-- Side Line Numbers Background -->
  <rect x="0" y="35" width="45" height="585" fill="#252526"/>

  <!-- Editor Area -->
  <rect x="45" y="35" width="815" height="555" fill="#1e1e1e"/>

  <!-- Error Highlight Strip (line 18-22) -->
  <rect x="45" y="247" width="815" height="20" fill="#3a1a1a" opacity="0.8"/>
  <rect x="45" y="267" width="815" height="20" fill="#3a1a1a" opacity="0.8"/>
  <rect x="45" y="287" width="815" height="20" fill="#3a1a1a" opacity="0.8"/>

  <!-- Line Numbers -->
  <text x="8" y="65"  font-size="12" fill="#858585">1</text>
  <text x="8" y="85"  font-size="12" fill="#858585">2</text>
  <text x="8" y="105" font-size="12" fill="#858585">3</text>
  <text x="8" y="125" font-size="12" fill="#858585">4</text>
  <text x="8" y="145" font-size="12" fill="#858585">5</text>
  <text x="8" y="165" font-size="12" fill="#858585">6</text>
  <text x="8" y="185" font-size="12" fill="#858585">7</text>
  <text x="8" y="205" font-size="12" fill="#858585">8</text>
  <text x="8" y="225" font-size="12" fill="#858585">9</text>
  <text x="5" y="247" font-size="12" fill="#858585">10</text>
  <text x="5" y="267" font-size="12" fill="#ff5555" font-weight="bold">11</text>
  <text x="5" y="287" font-size="12" fill="#ff5555" font-weight="bold">12</text>
  <text x="5" y="307" font-size="12" fill="#ff5555" font-weight="bold">13</text>
  <text x="5" y="327" font-size="12" fill="#858585">14</text>
  <text x="5" y="347" font-size="12" fill="#858585">15</text>
  <text x="5" y="367" font-size="12" fill="#858585">16</text>
  <text x="5" y="387" font-size="12" fill="#858585">17</text>
  <text x="5" y="407" font-size="12" fill="#858585">18</text>
  <text x="5" y="427" font-size="12" fill="#858585">19</text>
  <text x="5" y="447" font-size="12" fill="#858585">20</text>
  <text x="5" y="467" font-size="12" fill="#858585">21</text>
  <text x="5" y="487" font-size="12" fill="#858585">22</text>
  <text x="5" y="507" font-size="12" fill="#858585">23</text>
  <text x="5" y="527" font-size="12" fill="#858585">24</text>
  <text x="5" y="547" font-size="12" fill="#858585">25</text>
  <text x="5" y="567" font-size="12" fill="#858585">26</text>

  <!-- Code Content -->
  <!-- Line 1 -->
  <text x="55" y="65" font-size="12.5" fill="#c586c0">import </text>
  <text x="107" y="65" font-size="12.5" fill="#9cdcfe">React</text>
  <text x="142" y="65" font-size="12.5" fill="#cccccc">, &#123; </text>
  <text x="172" y="65" font-size="12.5" fill="#9cdcfe">useState</text>
  <text x="230" y="65" font-size="12.5" fill="#cccccc">, </text>
  <text x="243" y="65" font-size="12.5" fill="#9cdcfe">useEffect</text>
  <text x="310" y="65" font-size="12.5" fill="#cccccc"> &#125; </text>
  <text x="335" y="65" font-size="12.5" fill="#c586c0">from </text>
  <text x="375" y="65" font-size="12.5" fill="#ce9178">'react'</text>
  <text x="415" y="65" font-size="12.5" fill="#cccccc">;</text>

  <!-- Line 2 -->
  <text x="55" y="85" font-size="12.5" fill="#c586c0">import </text>
  <text x="107" y="85" font-size="12.5" fill="#9cdcfe">axios</text>
  <text x="143" y="85" font-size="12.5" fill="#c586c0"> from </text>
  <text x="185" y="85" font-size="12.5" fill="#ce9178">'axios'</text>
  <text x="225" y="85" font-size="12.5" fill="#cccccc">;</text>

  <!-- Line 3 blank -->

  <!-- Line 4 -->
  <text x="55" y="125" font-size="12.5" fill="#c586c0">const </text>
  <text x="95" y="125" font-size="12.5" fill="#dcdcaa">UserDashboard</text>
  <text x="205" y="125" font-size="12.5" fill="#cccccc"> = () =&gt; &#123;</text>

  <!-- Line 5 -->
  <text x="75" y="145" font-size="12.5" fill="#c586c0">const </text>
  <text x="115" y="145" font-size="12.5" fill="#cccccc">[</text>
  <text x="122" y="145" font-size="12.5" fill="#9cdcfe">userData</text>
  <text x="178" y="145" font-size="12.5" fill="#cccccc">, </text>
  <text x="190" y="145" font-size="12.5" fill="#9cdcfe">setUserData</text>
  <text x="263" y="145" font-size="12.5" fill="#cccccc">] = </text>
  <text x="290" y="145" font-size="12.5" fill="#dcdcaa">useState</text>
  <text x="345" y="145" font-size="12.5" fill="#cccccc">(</text>
  <text x="350" y="145" font-size="12.5" fill="#b5cea8">null</text>
  <text x="375" y="145" font-size="12.5" fill="#cccccc">);</text>

  <!-- Line 6 blank -->

  <!-- Line 7 comment -->
  <text x="75" y="185" font-size="12.5" fill="#6a9955">// ⚠️ BUG: Missing dependency array causes infinite loop!</text>

  <!-- Line 8 -->
  <text x="75" y="205" font-size="12.5" fill="#dcdcaa">useEffect</text>
  <text x="135" y="205" font-size="12.5" fill="#cccccc">(() =&gt; &#123;</text>

  <!-- Line 9 -->
  <text x="95" y="225" font-size="12.5" fill="#c586c0">const </text>
  <text x="135" y="225" font-size="12.5" fill="#dcdcaa">fetchUser</text>
  <text x="193" y="225" font-size="12.5" fill="#cccccc"> = </text>
  <text x="210" y="225" font-size="12.5" fill="#c586c0">async </text>
  <text x="248" y="225" font-size="12.5" fill="#cccccc">() =&gt; &#123;</text>

  <!-- Line 10 (highlighted error) -->
  <text x="115" y="247" font-size="12.5" fill="#c586c0">const </text>
  <text x="155" y="247" font-size="12.5" fill="#9cdcfe">res</text>
  <text x="173" y="247" font-size="12.5" fill="#cccccc"> = </text>
  <text x="188" y="247" font-size="12.5" fill="#c586c0">await </text>
  <text x="228" y="247" font-size="12.5" fill="#9cdcfe">axios</text>
  <text x="260" y="247" font-size="12.5" fill="#cccccc">.</text>
  <text x="265" y="247" font-size="12.5" fill="#dcdcaa">get</text>
  <text x="286" y="247" font-size="12.5" fill="#cccccc">(</text>
  <text x="293" y="247" font-size="12.5" fill="#ce9178">'/api/user/profile'</text>
  <text x="420" y="247" font-size="12.5" fill="#cccccc">);</text>

  <!-- Line 11 (highlighted error - setUserData triggers re-render) -->
  <text x="115" y="267" font-size="12.5" fill="#dcdcaa">setUserData</text>
  <text x="195" y="267" font-size="12.5" fill="#cccccc">(</text>
  <text x="200" y="267" font-size="12.5" fill="#9cdcfe">res</text>
  <text x="218" y="267" font-size="12.5" fill="#cccccc">.</text>
  <text x="223" y="267" font-size="12.5" fill="#9cdcfe">data</text>
  <text x="248" y="267" font-size="12.5" fill="#cccccc">);  </text>
  <text x="280" y="267" font-size="12.5" fill="#ff5555">// ❌ triggers re-render → re-calls useEffect again!</text>

  <!-- Line 12 -->
  <text x="95" y="287" font-size="12.5" fill="#cccccc">&#125;;</text>

  <!-- Line 13 -->
  <text x="95" y="307" font-size="12.5" fill="#dcdcaa">fetchUser</text>
  <text x="155" y="307" font-size="12.5" fill="#cccccc">();</text>

  <!-- Line 14 -->
  <text x="75" y="327" font-size="12.5" fill="#cccccc">&#125;);  </text>
  <text x="120" y="327" font-size="12.5" fill="#ff5555">// ❌ No dependency array [] — runs every render!</text>

  <!-- Blank line 15 -->

  <!-- Line 16 comment -->
  <text x="75" y="367" font-size="12.5" fill="#6a9955">// 🔁 Console shows: GET /api/user/profile called 100s of times</text>

  <!-- Line 17 blank -->

  <!-- Line 18 return -->
  <text x="75" y="407" font-size="12.5" fill="#c586c0">return </text>
  <text x="120" y="407" font-size="12.5" fill="#cccccc">(</text>

  <!-- Line 19 -->
  <text x="95" y="427" font-size="12.5" fill="#4ec9b0">&lt;div </text>
  <text x="133" y="427" font-size="12.5" fill="#9cdcfe">className</text>
  <text x="201" y="427" font-size="12.5" fill="#cccccc">=</text>
  <text x="208" y="427" font-size="12.5" fill="#ce9178">"dashboard"</text>
  <text x="283" y="427" font-size="12.5" fill="#4ec9b0">&gt;</text>

  <!-- Line 20 -->
  <text x="115" y="447" font-size="12.5" fill="#4ec9b0">&lt;h2&gt;</text>
  <text x="152" y="447" font-size="12.5" fill="#cccccc">Welcome, &#123;</text>
  <text x="222" y="447" font-size="12.5" fill="#9cdcfe">userData</text>
  <text x="277" y="447" font-size="12.5" fill="#cccccc">?.</text>
  <text x="287" y="447" font-size="12.5" fill="#9cdcfe">name</text>
  <text x="318" y="447" font-size="12.5" fill="#cccccc"> ?? </text>
  <text x="343" y="447" font-size="12.5" fill="#ce9178">'Loading...'</text>
  <text x="430" y="447" font-size="12.5" fill="#cccccc">&#125;</text>
  <text x="440" y="447" font-size="12.5" fill="#4ec9b0">&lt;/h2&gt;</text>

  <!-- Line 21 -->
  <text x="95" y="467" font-size="12.5" fill="#4ec9b0">&lt;/div&gt;</text>

  <!-- Line 22 -->
  <text x="75" y="487" font-size="12.5" fill="#cccccc">);</text>

  <!-- Line 23 -->
  <text x="55" y="507" font-size="12.5" fill="#cccccc">&#125;;</text>

  <!-- Line 24 blank -->

  <!-- Line 25 -->
  <text x="55" y="547" font-size="12.5" fill="#c586c0">export default </text>
  <text x="160" y="547" font-size="12.5" fill="#9cdcfe">UserDashboard</text>
  <text x="265" y="547" font-size="12.5" fill="#cccccc">;</text>

  <!-- ERROR Squiggly underline on line 11 -->
  <path d="M 75 272 Q 85 275 95 272 Q 105 269 115 272 Q 125 275 135 272 Q 145 269 155 272 Q 165 275 175 272 Q 185 269 195 272 Q 205 275 215 272 Q 225 269 235 272 Q 245 275 255 272 Q 265 269 275 272" stroke="#ff5555" stroke-width="1.5" fill="none"/>
  <path d="M 75 292 Q 85 295 95 292 Q 105 289 115 292" stroke="#ff5555" stroke-width="1.5" fill="none"/>

  <!-- Bottom Status Bar -->
  <rect x="0" y="590" width="860" height="30" fill="#007acc"/>
  <text x="15" y="610" font-size="11" fill="#ffffff">⚠ 2 Problems   IT2020 - Web Development   UserDashboard.jsx   React   UTF-8</text>
  <text x="650" y="610" font-size="11" fill="#ffffff">Ln 11, Col 5   JavaScript JSX</text>

</svg>
